<svg width="187" height="42" viewBox="0 0 187 42" fill="none" xmlns="http://www.w3.org/2000/svg">
<path d="M97.6133 23.959C97.6133 25.8681 98.2969 26.7956 99.9121 26.9922L100.254 27.0361L100.592 26.9961C102.207 26.7994 102.891 25.873 102.891 23.9639V9.87891H106.903V11.9326C107.835 10.4166 109.741 9.29395 112.139 9.29395C114.831 9.29406 116.933 10.3187 118.305 12.3262C119.723 10.3701 121.878 9.34473 124.57 9.34473C129.22 9.3449 132.155 12.326 132.155 17.1689V23.96C132.155 25.8688 132.839 26.7956 134.454 26.9922L134.848 27.0391V27.043H139.15C137.437 25.2321 136.557 22.8878 136.557 20.1973C136.557 14.0857 141.01 9.7334 147.177 9.7334C148.497 9.73343 149.719 9.93028 150.848 10.3701V14.0859C149.672 13.6461 148.351 13.4492 147.274 13.4492C143.313 13.4494 140.668 16.187 140.668 20.1973C140.668 24.2075 143.36 27.0428 147.274 27.043C151.189 27.043 153.783 24.3521 153.783 20.2949V9.87891H157.895V22.9814C157.895 25.5225 158.578 26.7956 160.193 26.9922L160.567 27.0361C162.226 26.9518 163.171 25.7903 163.171 24.0107V9.87891H167.282V20.3418C167.282 24.2071 170.12 27.043 173.89 27.043C177.706 27.0428 180.397 24.1606 180.397 20.1973C180.397 16.2852 177.607 13.4493 173.791 13.4492C172.471 13.4492 171.052 13.7438 169.731 14.2305V10.5615C170.907 10.0235 172.325 9.72855 173.987 9.72852C180.299 9.72852 184.509 14.1277 184.509 20.1924C184.509 22.9299 183.628 25.2795 182.013 27.0391H187V30.6602H173.987C171.197 30.6601 168.556 29.5843 167.282 28.3115V41.2695H163.171V29.8281C162.632 30.3146 161.508 30.6602 160.479 30.6602V30.6562H159.805C157.211 30.6562 155.398 29.5331 154.616 27.5771C153.342 29.3364 150.262 30.6562 147.279 30.6562H134.062V30.6504C130.072 30.547 128.143 27.9353 128.143 23.9551V17.7031C128.143 14.9142 126.429 13.0558 123.835 13.0557C121.536 13.0557 119.528 14.8154 119.527 17.8008V30.6602H115.515V17.7031C115.515 14.9141 113.8 13.0557 111.206 13.0557C108.711 13.0559 106.899 15.1104 106.898 17.8945V23.96C106.898 28.0169 104.992 30.6602 100.731 30.6602H99.5195C97.5155 30.6602 95.5063 29.9255 94.3311 27.5811C93.0106 29.4388 89.9297 30.6602 86.8955 30.6602H73.7852V30.6562H73.499C70.9053 30.6562 69.0982 29.5329 68.3115 27.5771C67.0379 29.3366 63.9563 30.6562 60.9736 30.6562H24.8076V30.665H21.4785C18.346 30.665 16.6834 29.7855 15.2646 27.0947L11.2051 19.5137C11.1349 19.3827 11.0646 19.2705 10.999 19.1582C11.1816 19.0225 11.3504 18.8679 11.5049 18.7041L16.3555 20.6133L18.4443 24.6006C19.4229 26.4582 20.2096 27.043 21.4316 27.043V27.0479H22.4102V27.0391H35.5723C39.3883 27.0389 42.127 24.104 42.127 20.0469C42.1267 15.99 39.3881 13.0558 35.5723 13.0557C31.7561 13.0557 29.0166 15.9906 29.0166 20.001C29.012 21.9052 29.602 23.6176 30.6787 24.8389H26.4229C25.4444 23.6176 24.9054 21.8586 24.9053 20.001C24.9053 13.838 29.4056 9.34082 35.5723 9.34082C41.7387 9.34095 46.2381 13.8374 46.2383 20.0469C46.2383 22.7844 45.3583 25.1345 43.6445 27.0391H48.7344V27.043H52.8457C51.132 25.232 50.251 22.888 50.251 20.1973C50.251 14.0857 54.7044 9.7334 60.8711 9.7334C62.1914 9.73342 63.4136 9.93026 64.542 10.3701V14.0859C63.3667 13.6461 62.0457 13.4492 60.9688 13.4492C57.0077 13.4494 54.3623 16.187 54.3623 20.1973C54.3624 24.2074 57.0546 27.0427 60.9688 27.043C64.8832 27.043 67.4775 24.3521 67.4775 20.2949V9.87891H71.5889V22.9814C71.5889 25.5224 72.2724 26.7956 73.8877 26.9922L74.2812 27.0391V27.043H78.8232C77.1611 25.2835 76.2803 22.9346 76.2803 20.1504C76.2803 14.1372 80.5882 9.73353 86.7969 9.7334C88.3608 9.7334 89.8316 9.92962 91.0537 10.4678V14.0859C89.7334 13.6461 88.5579 13.4492 86.9941 13.4492C83.178 13.4492 80.3867 16.2851 80.3867 20.1973C80.3868 24.1561 83.0794 27.043 86.8955 27.043C90.6648 27.043 93.502 24.2071 93.502 20.3418V0H97.6133V23.959ZM4.20898 15.8262V30.6602H0V14.1699L4.20898 15.8262ZM8.76074 13.6641C9.42089 13.6641 10.02 13.9266 10.4648 14.3477L10.4639 14.3516C10.8124 14.6873 11.0632 15.1152 11.1709 15.6035L11.1768 15.6064C11.2095 15.7748 11.2334 15.9524 11.2334 16.1348C11.2334 16.9817 10.8072 17.7263 10.1611 18.1709C10.1518 18.1803 10.142 18.185 10.1279 18.1943L10.126 18.1934C9.73394 18.4528 9.26369 18.6064 8.76074 18.6064C7.39817 18.6064 6.28809 17.5012 6.28809 16.1348C6.28832 14.7732 7.39364 13.6641 8.76074 13.6641ZM12.7412 0.982422C18.4767 1.13699 21.8661 4.14146 21.8662 9.19043C21.8662 13.4815 19.6194 16.4441 15.752 17.4082L12.5205 16.1348C12.5204 15.4798 12.3516 14.8625 12.0566 14.3291H12.2305C15.6578 14.3291 17.7596 12.4712 17.7598 9.29395C17.7598 6.37388 15.606 4.67937 12.127 4.60449L12.7412 0.982422ZM9.32715 4.5957H4.20898V12.8643L0 11.208V0.978516H9.94531L9.32715 4.5957Z" fill="white"/>
</svg>
